HIERARCHY
ROOT Hips
{
	OFFSET -3.958830 18.904000 13.208200
	CHANNELS 6 Xposition Yposition Zposition Zrotation Yrotation Xrotation 
	JOINT LHipJoint
	{
		OFFSET 0.000000 0.000000 0.000000
		CHANNELS 3 Zrotation Yrotation Xrotation
		JOINT LeftUpLeg
		{
			OFFSET 1.800000 -1.400000 0.085000
			CHANNELS 3 Zrotation Yrotation Xrotation
			JOINT LeftLeg
			{
				OFFSET 2.215000 -6.000000 0.000000
				CHANNELS 3 Zrotation Yrotation Xrotation
				JOINT LeftFoot
				{
					OFFSET 2.500000 -6.900000 0.000000
					CHANNELS 3 Zrotation Yrotation Xrotation
					JOINT LeftToeBase
					{
						OFFSET 0.200000 -0.500000 1.950000
						CHANNELS 3 Zrotation Yrotation Xrotation
						End Site
						{
							OFFSET 0.000000 0.000000 0.000000
						}
					}
				}
			}
		}
	}
	JOINT RHipJoint
	{
		OFFSET 0.000000 0.000000 0.000000
		CHANNELS 3 Zrotation Yrotation Xrotation
		JOINT RightUpLeg
		{
			OFFSET -1.800000 -1.400000 0.085000
			CHANNELS 3 Zrotation Yrotation Xrotation
			JOINT RightLeg
			{
				OFFSET -2.215000 -6.000000 0.000000
				CHANNELS 3 Zrotation Yrotation Xrotation
				JOINT RightFoot
				{
					OFFSET -2.500000 -6.900000 0.000000
					CHANNELS 3 Zrotation Yrotation Xrotation
					JOINT RightToeBase
					{
						OFFSET -0.200000 -0.500000 1.950000
						CHANNELS 3 Zrotation Yrotation Xrotation
						End Site
						{
							OFFSET 0.000000 0.000000 0.000000
						}
					}
				}
			}
		}
	}
	JOINT LowerBack
	{
		OFFSET 0.000000 0.000000 0.000000
		CHANNELS 3 Zrotation Yrotation Xrotation
		JOINT Spine
		{
			OFFSET -0.087000 1.940000 -0.288900
			CHANNELS 3 Zrotation Yrotation Xrotation
			JOINT Spine1
			{
				OFFSET 0.000000 1.950000 0.060000
				CHANNELS 3 Zrotation Yrotation Xrotation
				JOINT Neck
				{
					OFFSET 0.000000 0.000000 0.000000
					CHANNELS 3 Zrotation Yrotation Xrotation
					JOINT Neck1
					{
						OFFSET 0.000000 1.600000 0.340000
						CHANNELS 3 Zrotation Yrotation Xrotation
						JOINT Head
						{
							OFFSET 0.000000 1.667000 -0.240000
							CHANNELS 3 Zrotation Yrotation Xrotation
							End Site
							{
								OFFSET 0.000000 0.000000 0.000000
							}
						}
					}
				}
				JOINT LeftShoulder
				{
					OFFSET 0.000000 0.000000 0.000000
					CHANNELS 3 Zrotation Yrotation Xrotation
					JOINT LeftArm
					{
						OFFSET 2.700000 1.550000 -0.730000
						CHANNELS 3 Zrotation Yrotation Xrotation
						JOINT LeftForeArm
						{
							OFFSET 5.450000 0.000000 0.000000
							CHANNELS 3 Zrotation Yrotation Xrotation
							JOINT LeftHand
							{
								OFFSET 3.450000 0.000000 0.000000
								CHANNELS 3 Zrotation Yrotation Xrotation
								JOINT LeftHandIndex1
								{
									OFFSET 0.750000 0.000000 0.000000
									CHANNELS 3 Zrotation Yrotation Xrotation
									End Site
									{
										OFFSET 0.000000 0.000000 0.000000
									}
								}
							}
						}
					}
				}
				JOINT RightShoulder
				{
					OFFSET 0.000000 0.000000 0.000000
					CHANNELS 3 Zrotation Yrotation Xrotation
					JOINT RightArm
					{
						OFFSET -2.700000 1.550000 -0.730000
						CHANNELS 3 Zrotation Yrotation Xrotation
						JOINT RightForeArm
						{
							OFFSET -5.450000 0.000000 0.000000
							CHANNELS 3 Zrotation Yrotation Xrotation
							JOINT RightHand
							{
								OFFSET -3.450000 0.000000 0.000000
								CHANNELS 3 Zrotation Yrotation Xrotation
								JOINT RightHandIndex1
								{
									OFFSET -0.750000 0.000000 0.000000
									CHANNELS 3 Zrotation Yrotation Xrotation
									End Site
									{
										OFFSET 0.000000 0.000000 0.000000
									}
								}
							}
						}
					}
				}
			}
		}
	}
}
MOTION
Frames: 13
Frame Time: 0.016667
0.519660 16.808250 -2.295230 -3.317406 14.716944 -5.427608 -14.714415 13.381696 3.230220 1.800012 -0.296039 -4.040726 -9.711944 6.088277 9.856985 0.505573 3.768822 3.253306 0.492000 0.336270 0.498170 18.564532 -11.615485 2.623900 -1.054291 0.257243 -11.677178 1.768392 -5.220678 22.681704 -0.519798 -3.513464 2.986825 -0.128890 -0.326340 0.331070 -5.090089 -0.589880 -7.682008 30.501604 -8.436948 15.718306 -24.617729 -2.788819 5.616248 10.272961 -0.868829 -13.391599 -6.192389 -3.782956 50.159480 -3.073680 -8.102150 -9.984980 -30.067974 -12.752733 4.526741 -41.738921 -1.401206 -4.522077 -10.076616 -13.537392 0.206021 -3.039155 3.373218 0.293110 -0.336110 0.469310 0.155730 7.605336 14.668534 12.472026 21.840091 -9.634344 -9.583502 179.941430 63.011998 165.710071 2.456142 -2.092080 0.391740 -0.238360 -0.375760 0.116320 
0.524710 16.806930 -2.299040 -3.283452 14.773424 -5.495718 -14.716204 13.384873 3.236512 1.763156 -0.284492 -3.952895 -9.746554 6.096934 9.832303 0.510582 3.773479 3.251731 0.494520 0.339590 0.500000 18.562271 -11.617271 2.617264 -1.075784 0.261847 -11.730470 1.664823 -5.212163 22.854140 -0.523043 -3.519735 2.983950 -0.128930 -0.329920 0.331610 -5.086957 -0.595590 -7.682122 30.593610 -8.546078 15.782388 -24.792989 -2.817340 5.639508 10.367083 -0.829866 -13.451496 -6.162493 -3.822885 50.317899 -3.160900 -8.139430 -10.042320 -30.009347 -12.795832 4.556709 -41.664677 -1.377238 -4.534236 -10.089877 -13.567718 0.210892 -3.032731 3.375295 0.294410 -0.338860 0.473100 0.157120 7.350015 14.713424 12.497370 21.508705 -9.722978 -9.605049 -178.586345 63.068746 168.200019 2.454332 -2.109844 0.394240 -0.239110 -0.378420 0.117160 
0.534140 16.804190 -2.306870 -3.209024 14.876712 -5.627542 -14.719451 13.389354 3.248983 1.682533 -0.263364 -3.787782 -9.825364 6.118012 9.797504 0.519023 3.783667 3.247901 0.498730 0.345710 0.503260 18.558131 -11.621868 2.604320 -1.125853 0.270300 -11.834908 1.471805 -5.198151 23.193249 -0.528736 -3.533171 2.978072 -0.128270 -0.337100 0.331360 -5.081288 -0.602635 -7.682677 30.751495 -8.757436 15.916575 -25.131214 -2.869856 5.687943 10.546065 -0.748986 -13.559151 -6.088363 -3.911652 50.614801 -3.293050 -8.222890 -10.190240 -29.873785 -12.866675 4.608448 -41.517270 -1.343830 -4.555183 -10.136403 -13.626562 0.222187 -3.020763 3.377220 0.297460 -0.344290 0.479880 0.158660 6.841302 14.782849 12.539332 20.874927 -9.883102 -9.650292 -175.696002 63.213945 173.073120 2.452390 -2.142643 0.397800 -0.239810 -0.383060 0.118000 
0.547930 16.800310 -2.318290 -3.128585 15.034354 -5.815029 -14.724575 13.396926 3.265464 1.588997 -0.236541 -3.577884 -9.951104 6.155891 9.772265 0.531251 3.799098 3.241314 0.502240 0.354400 0.505040 18.552001 -11.625909 2.587464 -1.162138 0.280812 -11.975566 1.183962 -5.170481 23.664334 -0.535642 -3.551489 2.969846 -0.126800 -0.346650 0.328580 -5.072275 -0.617471 -7.682928 31.002548 -9.071389 16.099801 -25.609110 -2.950776 5.721582 10.807244 -0.640504 -13.690036 -5.993544 -4.038402 51.022904 -3.483570 -8.339380 -10.354620 -29.738337 -12.938341 4.668927 -41.278266 -1.279980 -4.583238 -10.201919 -13.700648 0.239938 -3.004223 3.379857 0.299430 -0.351570 0.487980 0.159840 6.158983 14.855314 12.576313 19.897228 -10.137315 -9.700253 -171.466607 63.489620 -179.847671 2.455504 -2.187138 0.402160 -0.239690 -0.388060 0.119900 
0.565090 16.795450 -2.332670 -3.026570 15.234515 -6.052336 -14.731049 13.406204 3.285316 1.469550 -0.209380 -3.328703 -10.103070 6.202563 9.757661 0.548309 3.816669 3.233812 0.511270 0.368590 0.511390 18.544651 -11.630623 2.566153 -1.200948 0.287077 -12.134871 0.802950 -5.125246 24.235367 -0.545683 -3.573921 2.959768 -0.123730 -0.360120 0.326150 -5.061318 -0.637632 -7.681452 31.324058 -9.477313 16.329578 -26.207001 -3.058713 5.752057 11.126926 -0.546107 -13.837872 -5.961602 -4.162535 51.511158 -3.634840 -8.508220 -10.578560 -29.564250 -12.990852 4.720971 -40.962600 -1.224144 -4.606700 -10.324832 -13.775483 0.265860 -2.981368 3.385866 0.301720 -0.361880 0.499270 0.162880 5.318554 14.933318 12.613953 18.640326 -10.463337 -9.722450 -166.193094 63.855337 -171.205248 2.467625 -2.239569 0.409640 -0.241350 -0.398070 0.122500 
0.584510 16.790700 -2.349530 -2.931602 15.478411 -6.357314 -14.739161 13.419181 3.307131 1.357055 -0.179189 -3.032743 -10.260435 6.253397 9.739992 0.565973 3.837886 3.225031 0.521890 0.385420 0.517860 18.535607 -11.634238 2.543222 -1.214300 0.285378 -12.268858 0.342548 -5.063782 24.865516 -0.558404 -3.601406 2.948666 -0.119420 -0.374460 0.322870 -5.047362 -0.666397 -7.679659 31.717417 -9.966487 16.616526 -26.893347 -3.185761 5.756669 11.501441 -0.436382 -13.999461 -5.933960 -4.311202 52.113758 -3.777240 -8.732250 -10.849650 -29.462639 -13.041125 4.768166 -40.543872 -1.127622 -4.641849 -10.457144 -13.866554 0.293133 -2.953999 3.392376 0.305320 -0.373420 0.511890 0.166950 4.434472 15.014531 12.660288 17.138455 -10.848970 -9.685602 -159.689006 64.333034 -160.938938 2.492072 -2.287079 0.417250 -0.241540 -0.408950 0.125430 
0.605630 16.784880 -2.368130 -2.829798 15.750584 -6.688023 -14.748701 13.434433 3.330145 1.239865 -0.152001 -2.727592 -10.429598 6.310366 9.741135 0.584042 3.861671 3.215448 0.535090 0.404970 0.526340 18.525250 -11.636709 2.518762 -1.215334 0.281742 -12.409114 -0.182397 -4.986498 25.553955 -0.573201 -3.633628 2.936111 -0.113180 -0.390320 0.318900 -5.030402 -0.703328 -7.677433 32.133970 -10.509940 16.928680 -27.603873 -3.324553 5.747358 11.894145 -0.313418 -14.165113 -5.910353 -4.501528 52.729330 -3.917400 -8.993180 -11.147970 -29.379380 -13.071851 4.803864 -40.095165 -1.003898 -4.693418 -10.613552 -13.992436 0.323021 -2.923071 3.400171 0.309670 -0.386050 0.525780 0.172440 3.531142 15.063931 12.727092 15.382347 -11.260132 -9.486476 -151.711034 64.826034 -148.962931 2.534935 -2.311867 0.424770 -0.241260 -0.422220 0.128100 
0.628030 16.779250 -2.387670 -2.720196 16.056310 -7.055459 -14.760536 13.455262 3.356798 1.119338 -0.125829 -2.386543 -10.615304 6.371887 9.736513 0.611415 3.885921 3.204574 0.554120 0.430420 0.541000 18.512191 -11.635707 2.492572 -1.223916 0.266716 -12.517968 -0.740799 -4.899044 26.263306 -0.592711 -3.669669 2.919084 -0.107260 -0.411030 0.319230 -5.007774 -0.758909 -7.677144 32.542591 -11.107179 17.285294 -28.338248 -3.475638 5.730772 12.311281 -0.161952 -14.386881 -5.884953 -4.723034 53.404420 -4.056860 -9.286430 -11.401060 -29.384848 -13.117133 4.830433 -39.561554 -0.841626 -4.762952 -10.741667 -14.125234 0.352837 -2.886442 3.417337 0.311100 -0.401100 0.544290 0.178730 2.661999 15.124594 12.894722 13.442578 -11.644439 -9.013533 -141.927826 65.138744 -135.083882 2.603589 -2.271484 0.439910 -0.247050 -0.440680 0.132910 
0.651370 16.773910 -2.408390 -2.624006 16.361773 -7.455606 -14.773659 13.479482 3.384511 1.008513 -0.096176 -2.014888 -10.801854 6.434296 9.718895 0.642732 3.907199 3.192477 0.577140 0.462670 0.557650 18.497943 -11.631006 2.466688 -1.218554 0.252571 -12.629697 -1.323193 -4.805091 27.018619 -0.614862 -3.712238 2.899698 -0.099500 -0.436350 0.319710 -4.981348 -0.829873 -7.677128 32.960326 -11.777100 17.682385 -29.098383 -3.646080 5.795342 12.765993 -0.008390 -14.673254 -5.905597 -4.962319 54.029503 -4.258530 -9.581180 -11.685120 -29.388522 -13.122889 4.787410 -39.000597 -0.729925 -4.855506 -10.850606 -14.296263 0.385770 -2.846194 3.440315 0.309730 -0.417640 0.564800 0.185360 1.718483 15.156616 13.246171 11.533830 -11.808063 -8.158743 -129.994282 64.825498 -118.633717 2.689275 -2.025765 0.459680 -0.256190 -0.462140 0.138630 
0.674270 16.768550 -2.430320 -2.516410 16.705595 -7.882402 -14.785473 13.502756 3.412866 0.873585 -0.066488 -1.620470 -10.963062 6.494156 9.722595 0.676139 3.924443 3.180420 0.603450 0.499680 0.577920 18.484533 -11.628482 2.442222 -1.225197 0.235423 -12.738904 -1.908871 -4.715187 27.828674 -0.640782 -3.765307 2.875093 -0.090680 -0.465000 0.321410 -4.959393 -0.904214 -7.681767 33.316672 -12.510480 18.112707 -29.835521 -3.831781 5.934967 13.213804 0.164046 -15.012786 -5.911110 -5.236536 54.619420 -4.484260 -9.875040 -11.981570 -29.365262 -13.163159 4.754825 -38.451237 -0.660397 -4.962933 -10.932897 -14.490901 0.416909 -2.802985 3.467186 0.307140 -0.435260 0.588110 0.191900 0.759261 15.272930 13.626986 9.694226 -11.837695 -7.266515 -117.260480 63.887921 -99.617509 2.709172 -1.246683 0.482800 -0.267960 -0.486590 0.144990 
0.696480 16.764040 -2.452840 -2.420493 17.062338 -8.357559 -14.786742 13.506441 3.442203 0.735771 -0.030721 -1.151041 -11.091084 6.543290 9.702591 0.706424 3.939470 3.169536 0.629860 0.536550 0.598960 18.479462 -11.648383 2.426332 -1.218879 0.212480 -12.823293 -2.523881 -4.617814 28.652402 -0.668817 -3.826581 2.848368 -0.080370 -0.493920 0.321760 -4.966893 -0.910023 -7.702960 33.728215 -13.202975 18.563248 -30.581949 -3.944562 5.933625 13.688129 0.304873 -15.186011 -5.785227 -5.556510 55.264061 -4.672130 -10.190000 -12.362050 -29.313533 -13.394669 5.016083 -37.998026 -0.497442 -5.073151 -10.975864 -14.700573 0.439236 -2.755396 3.494383 0.306540 -0.453540 0.612360 0.198790 -0.284670 15.851398 13.206902 8.071028 -12.404478 -8.079374 -105.805220 64.853650 -79.506083 2.340774 0.137378 0.503650 -0.276560 -0.510780 0.150130 
0.717000 16.759380 -2.475060 -2.339354 17.468915 -8.857923 -14.768228 13.472395 3.470815 0.594656 0.010166 -0.616496 -11.214488 6.581022 9.641527 0.740073 3.945759 3.162217 0.658050 0.575710 0.622360 18.491089 -11.709552 2.420594 -1.222000 0.179254 -12.899609 -3.146572 -4.516165 29.446981 -0.699208 -3.895166 2.819040 -0.070490 -0.521080 0.322950 -5.034512 -0.769773 -7.757793 34.276011 -13.578071 18.917855 -31.260080 -3.924471 5.590853 14.199666 0.459456 -14.948442 -5.253302 -6.012099 56.067393 -4.756110 -10.521430 -12.674840 -29.257412 -14.046711 5.872433 -37.771644 -0.048288 -5.174483 -10.939999 -14.861799 0.446035 -2.704152 3.529855 0.303120 -0.471340 0.636990 0.206380 -1.324480 16.991518 11.406975 6.550443 -13.843628 -11.435490 -92.540915 69.782826 -60.647179 1.595406 0.958144 0.527110 -0.284720 -0.536500 0.157310 
0.736590 16.753710 -2.496620 -2.220124 17.875236 -9.288281 -14.775357 13.429858 3.487919 0.431307 0.053515 -0.110795 -11.351273 6.621760 9.578464 0.770099 3.960817 3.152667 0.679780 0.607060 0.640590 18.484775 -11.758437 2.402114 -1.250807 0.156296 -13.016609 -3.737237 -4.424838 30.247183 -0.728457 -3.971325 2.786859 -0.061910 -0.541870 0.326240 -5.030331 -0.630303 -7.761318 34.668108 -13.875347 19.110298 -31.830569 -3.848640 5.547217 14.551797 0.677415 -14.942538 -4.615515 -6.532692 56.768733 -4.853660 -10.837380 -12.878300 -29.208781 -14.774104 6.600008 -37.552424 0.337959 -5.283891 -10.901237 -15.013355 0.440501 -2.668865 3.557770 0.300290 -0.484420 0.659140 0.213520 -2.109394 18.088868 10.278888 4.949012 -15.194779 -13.860576 -74.915000 71.897482 -45.067912 1.744919 -0.160142 0.545830 -0.290280 -0.556850 0.164090 
